<svg width="20" height="20" viewBox="0 0 20 20" fill="none" xmlns="http://www.w3.org/2000/svg">
<path d="M15.8333 16.6667H4.16667C3.94565 16.6667 3.73369 16.7545 3.57741 16.9107C3.42113 17.067 3.33333 17.279 3.33333 17.5C3.33333 17.721 3.42113 17.933 3.57741 18.0893C3.73369 18.2455 3.94565 18.3333 4.16667 18.3333H15.8333C16.0543 18.3333 16.2663 18.2455 16.4226 18.0893C16.5789 17.933 16.6667 17.721 16.6667 17.5C16.6667 17.279 16.5789 17.067 16.4226 16.9107C16.2663 16.7545 16.0543 16.6667 15.8333 16.6667Z" fill="#374941"/>
<path d="M4.16667 15H4.24167L7.71667 14.6833C8.09733 14.6454 8.45336 14.4777 8.725 14.2083L16.225 6.70833C16.5161 6.4008 16.6734 5.99042 16.6625 5.56711C16.6515 5.1438 16.4733 4.74209 16.1667 4.45L13.8833 2.16667C13.5853 1.88675 13.1948 1.72613 12.7861 1.71538C12.3774 1.70462 11.979 1.84447 11.6667 2.10833L4.16667 9.60833C3.8973 9.87997 3.72959 10.236 3.69167 10.6167L3.33333 14.0917C3.32211 14.2137 3.33794 14.3368 3.37972 14.452C3.42149 14.5672 3.48817 14.6718 3.575 14.7583C3.65287 14.8356 3.74521 14.8967 3.84674 14.9381C3.94828 14.9796 4.05699 15.0006 4.16667 15ZM12.725 3.33333L15 5.60833L13.3333 7.23333L11.1 5L12.725 3.33333ZM5.30833 10.7583L10 6.1L12.25 8.35L7.58333 13.0167L5.08333 13.25L5.30833 10.7583Z" fill="#374941"/>
</svg>
